<?xml version="1.0" standalone="no"?>
<!DOCTYPE svg PUBLIC "-//W3C//DTD SVG 20010904//EN"
 "http://www.w3.org/TR/2001/REC-SVG-20010904/DTD/svg10.dtd">
<svg version="1.0" xmlns="http://www.w3.org/2000/svg"
 width="1280.000000pt" height="800.000000pt" viewBox="0 0 1280.000000 800.000000"
 preserveAspectRatio="xMidYMid meet">

<g transform="translate(0.000000,800.000000) scale(0.100000,-0.100000)"
fill="#000000" stroke="none">
<path d="M6462 6216 c-52 -46 -79 -59 -227 -101 -169 -48 -345 -107 -448 -149
-232 -97 -481 -257 -700 -449 l-78 -69 -192 -39 c-106 -22 -204 -42 -218 -45
-18 -4 -28 -1 -32 9 -3 8 -26 29 -51 46 -37 26 -54 31 -103 31 -137 -1 -351
-74 -477 -164 -36 -26 -66 -49 -66 -52 0 -3 11 -20 25 -38 31 -40 31 -43 1
-87 l-24 -36 81 -124 c81 -121 83 -124 127 -132 25 -4 69 -15 99 -23 l53 -15
-7 -37 c-9 -47 -14 -55 -28 -44 -23 17 -137 53 -148 47 -19 -12 -30 -55 -19
-76 12 -21 71 -26 128 -10 32 10 48 -4 18 -15 -35 -13 -28 -64 9 -64 16 0 25
7 29 25 4 14 4 30 1 35 -4 6 -2 10 4 10 5 0 13 -21 16 -47 8 -61 17 -77 44
-81 22 -4 61 22 61 40 0 5 -20 31 -46 58 l-45 48 15 36 c8 20 22 36 30 36 8 0
38 -27 68 -60 l53 -60 750 35 c413 19 840 39 950 45 110 5 313 15 450 20 462
19 849 40 925 51 120 17 317 65 420 102 179 65 322 156 490 312 104 96 211
189 235 205 38 25 495 502 495 516 0 8 -12 16 -27 20 -16 3 -44 10 -63 15 -54
13 -339 47 -490 58 -271 21 -484 23 -940 11 l-465 -12 -110 42 c-60 23 -180
67 -265 97 -85 30 -173 65 -195 77 -72 38 -73 38 -113 2z m243 -126 c72 -26
161 -58 200 -70 38 -13 94 -34 123 -47 l53 -23 -21 -30 c-13 -18 -42 -37 -78
-50 -78 -30 -235 -69 -302 -77 l-55 -5 -153 137 c-83 75 -152 140 -152 145 0
7 107 48 180 68 42 12 41 12 205 -48z m-266 -227 l105 -99 -135 -23 c-74 -13
-361 -69 -639 -126 -278 -57 -527 -107 -555 -110 l-50 -8 25 28 c40 44 209
167 308 224 174 100 382 191 602 266 l125 42 55 -47 c30 -26 102 -92 159 -147z
m2354 40 c-7 -2 -19 -2 -25 0 -7 3 -2 5 12 5 14 0 19 -2 13 -5z m-48 -9 c-12
-4 -215 -31 -640 -84 -667 -83 -993 -130 -1875 -271 -305 -48 -429 -69 -615
-103 -77 -14 -284 -50 -460 -81 -176 -31 -375 -67 -443 -81 -127 -25 -162 -29
-127 -15 17 7 173 42 845 186 850 183 1908 341 2740 410 173 14 353 30 400 34
91 9 191 12 175 5z m-490 -139 c-5 -3 -145 -27 -310 -55 -165 -28 -372 -64
-460 -80 -740 -139 -1426 -250 -2300 -375 -214 -30 -448 -64 -518 -75 -275
-42 -400 -60 -420 -59 -30 2 20 11 413 79 190 32 397 68 460 79 279 49 362 64
650 111 291 47 468 75 1125 175 259 39 480 73 1130 174 174 26 256 36 230 26z
m185 -436 c-159 -71 -918 -309 -1155 -363 -330 -75 -783 -135 -1260 -166 -141
-10 -1183 -73 -1380 -85 -205 -12 -43 7 355 40 234 20 551 47 705 60 154 14
312 27 350 31 513 42 880 93 1265 175 252 54 373 84 515 129 50 16 169 51 265
79 96 27 218 65 270 85 104 38 140 46 70 15z m-3883 -75 c-3 -3 -12 -4 -19 -1
-8 3 -5 6 6 6 11 1 17 -2 13 -5z m856 -116 c-2 -5 6 -8 18 -8 40 0 15 -9 -56
-20 -215 -32 -1189 -141 -1250 -139 -29 1 -30 1 -5 9 14 4 19 8 13 9 -14 1
-18 31 -5 31 4 0 57 7 117 15 61 8 238 31 395 50 157 20 348 44 425 55 223 32
317 38 336 20 9 -8 14 -18 12 -22z m2742 -30 c-266 -136 -640 -238 -1000 -272
-47 -5 -36 -1 50 18 343 76 832 216 968 276 75 33 64 20 -18 -22z m-3942 5
c-7 -2 -19 -2 -25 0 -7 3 -2 5 12 5 14 0 19 -2 13 -5z"/>
<path d="M6515 4181 c-220 -40 -369 -93 -770 -278 -292 -135 -508 -213 -656
-239 -118 -20 -376 -14 -489 11 -41 9 -178 51 -305 92 -267 88 -377 118 -497
138 -106 17 -372 30 -343 16 11 -5 31 -10 45 -10 36 -1 211 -46 300 -77 41
-15 167 -72 280 -127 350 -171 409 -196 549 -236 162 -46 321 -66 441 -57 242
20 404 75 872 295 123 58 345 140 460 170 145 38 241 51 387 51 219 0 383 -43
691 -183 201 -91 416 -176 530 -210 401 -118 773 -98 1071 60 49 25 87 48 86
50 -2 2 -30 -6 -63 -17 -197 -68 -553 -66 -796 5 -123 35 -325 118 -443 180
-442 234 -682 335 -879 370 -120 20 -342 19 -471 -4z"/>
<path d="M6565 3815 c-173 -31 -321 -80 -590 -195 -332 -142 -382 -162 -523
-206 -184 -57 -285 -74 -442 -74 -254 0 -435 52 -813 234 -389 188 -598 243
-829 217 -145 -16 -159 -27 -49 -35 233 -17 449 -103 820 -325 427 -255 632
-342 902 -382 110 -16 339 -6 450 20 195 45 409 124 719 266 591 272 839 288
1271 82 251 -119 444 -169 664 -170 122 -1 154 3 250 27 61 15 117 32 125 36
8 5 -44 9 -120 9 -153 0 -252 15 -392 60 -139 45 -272 105 -448 203 -290 161
-381 198 -559 232 -101 19 -335 20 -436 1z"/>
<path d="M4164 2609 c-61 -18 -127 -71 -156 -128 -24 -45 -28 -65 -28 -130 0
-94 20 -140 83 -198 89 -82 243 -95 370 -32 l37 19 0 111 0 110 -52 -3 -53 -3
-3 -76 c-3 -70 -5 -77 -28 -88 -67 -30 -170 1 -214 65 -32 47 -33 134 -4 185
34 57 77 79 155 79 57 0 72 -4 97 -25 17 -14 34 -25 39 -25 5 0 24 15 42 34
l33 34 -36 27 c-20 15 -53 33 -73 41 -43 15 -162 17 -209 3z"/>
<path d="M5447 2610 l-59 -5 -109 -253 c-60 -139 -109 -255 -109 -257 0 -3 25
-5 55 -5 l55 0 24 54 c14 32 31 55 42 57 11 2 66 3 124 1 l106 -3 20 -52 20
-52 62 -3 c34 -2 62 -1 62 1 0 2 -6 17 -14 33 -7 16 -58 130 -111 254 -54 124
-101 227 -104 230 -3 3 -32 3 -64 0z m82 -307 c1 -10 -21 -13 -79 -13 -44 0
-80 2 -80 4 0 7 70 187 77 199 6 9 81 -164 82 -190z"/>
<path d="M4610 2455 c0 -231 20 -295 110 -345 38 -21 58 -25 130 -25 127 1
194 42 222 139 11 39 20 347 10 374 -2 7 -24 12 -57 12 l-54 0 -3 -179 c-3
-164 -5 -182 -24 -208 -12 -16 -36 -32 -57 -37 -51 -13 -105 2 -131 37 -19 26
-21 44 -24 208 l-3 179 -60 0 -59 0 0 -155z"/>
<path d="M5830 2350 l0 -260 60 0 60 0 0 75 0 75 58 0 57 0 49 -75 48 -75 64
0 64 0 -55 79 c-30 43 -55 83 -55 87 1 5 15 18 33 29 43 27 67 78 67 143 0 63
-18 102 -62 135 -54 39 -93 47 -244 47 l-144 0 0 -260z m297 152 c50 -38 46
-130 -7 -157 -18 -9 -56 -15 -100 -15 l-70 0 0 95 0 95 78 0 c57 0 83 -5 99
-18z"/>
<path d="M6410 2349 l0 -261 168 4 c190 5 230 16 296 84 97 100 79 301 -35
380 -67 46 -102 53 -271 54 l-158 0 0 -261z m345 137 c49 -37 68 -86 63 -154
-9 -100 -62 -139 -201 -144 l-87 -3 0 169 0 168 94 -4 c84 -3 97 -7 131 -32z"/>
<path d="M7068 2350 l3 -260 197 0 198 0 -1 45 0 45 -142 0 -143 0 0 65 0 65
120 0 120 0 0 45 0 45 -120 0 -120 0 0 60 0 60 140 0 140 0 0 45 0 45 -197 0
-198 0 3 -260z"/>
<path d="M7600 2350 l0 -260 60 0 60 0 0 75 0 75 58 -1 57 0 47 -75 47 -74 67
0 67 0 -20 23 c-11 12 -39 50 -61 84 l-42 62 36 22 c50 31 78 96 71 162 -9 71
-34 108 -96 140 -52 26 -61 27 -203 27 l-148 0 0 -260z m301 141 c21 -22 29
-39 29 -66 0 -27 -8 -44 -29 -66 -27 -27 -35 -29 -105 -29 l-76 0 0 95 0 95
76 0 c70 0 78 -2 105 -29z"/>
<path d="M8180 2350 l0 -260 60 0 60 0 0 260 0 260 -60 0 -60 0 0 -260z"/>
<path d="M8505 2358 c-60 -138 -111 -255 -113 -260 -2 -4 23 -8 56 -8 l59 0
20 53 20 52 125 3 124 3 23 -56 23 -55 59 0 c32 0 59 2 59 4 0 1 -25 61 -56
132 -85 195 -150 347 -157 367 -5 14 -18 17 -69 17 l-63 0 -110 -252z m219 28
c20 -50 36 -91 36 -93 0 -2 -38 -3 -85 -3 -47 0 -85 2 -85 4 0 2 14 36 31 77
17 41 35 85 40 98 13 33 21 22 63 -83z"/>
<path d="M5868 1821 c-20 -4 -55 -19 -76 -34 -100 -66 -126 -213 -57 -319 66
-101 235 -129 335 -57 l43 31 -31 30 -30 30 -32 -23 c-24 -18 -44 -24 -83 -23
-89 0 -139 51 -141 138 0 66 26 110 82 137 52 25 97 20 141 -17 l29 -24 32 29
c18 16 29 34 26 40 -4 6 -27 22 -51 37 -48 28 -125 38 -187 25z"/>
<path d="M7837 1816 c-199 -54 -226 -322 -43 -419 59 -31 174 -30 234 1 54 29
61 46 32 78 -29 30 -31 30 -76 -1 -93 -63 -214 8 -214 125 0 74 42 125 121
143 33 8 86 -7 113 -32 21 -19 21 -19 53 9 l32 29 -34 29 c-20 18 -54 34 -85
41 -62 13 -72 13 -133 -3z"/>
<path d="M4610 1600 l0 -220 160 0 160 0 0 40 0 40 -110 0 -110 0 0 180 0 180
-50 0 -50 0 0 -220z"/>
<path d="M5146 1783 c-19 -40 -152 -342 -167 -380 -8 -22 -6 -23 39 -23 48 0
48 0 68 46 l19 46 101 4 101 3 20 -50 21 -49 51 0 50 0 -33 78 c-18 42 -62
141 -96 220 l-63 142 -47 0 c-44 0 -47 -2 -64 -37z m104 -152 c16 -41 30 -75
30 -77 0 -2 -32 -4 -71 -4 -64 0 -70 2 -65 18 38 102 61 151 67 145 5 -5 22
-41 39 -82z"/>
<path d="M6210 1600 l0 -220 45 0 45 0 0 90 0 90 105 0 105 0 0 -90 0 -90 45
0 45 0 2 205 c0 113 1 211 2 218 1 7 -16 13 -46 15 l-47 3 -3 -88 -3 -88 -100
0 -100 0 -3 88 -3 87 -44 0 -45 0 0 -220z"/>
<path d="M6730 1678 c1 -179 15 -228 77 -272 83 -58 223 -44 279 29 32 42 44
116 44 268 l0 117 -50 0 -50 0 0 -147 c0 -128 -3 -152 -19 -180 -23 -37 -66
-50 -116 -33 -56 19 -65 47 -65 215 l0 145 -50 0 -50 0 0 -142z"/>
<path d="M7250 1600 l0 -220 170 0 170 0 0 35 0 34 -117 3 -118 3 -3 58 -3 57
101 0 100 0 0 35 0 35 -101 0 -100 0 3 51 3 52 113 -2 112 -2 0 40 0 41 -165
0 -165 0 0 -220z"/>
<path d="M8301 1798 c-29 -76 -87 -211 -112 -260 -16 -31 -37 -79 -48 -108
l-19 -51 50 3 c50 3 52 4 67 46 l15 42 93 0 c51 0 96 1 101 3 4 1 18 -19 31
-45 23 -47 24 -48 72 -48 42 0 47 2 42 17 -4 10 -46 108 -93 218 l-87 200 -51
3 c-47 3 -53 1 -61 -20z m79 -115 c7 -16 21 -52 31 -80 l18 -53 -71 0 c-52 0
-69 3 -65 13 43 109 60 147 66 147 4 0 14 -12 21 -27z"/>
</g>
</svg>
